# xmcd
#
# Track frame offsets:
#	150
#	17203
#	31171
#	46784
#	61148
#	78690
#	98009
#	112403
#	128297
#	142998
#	155028
#	171389
#	185482
#	204467
#	216821
#	232886
#	248280
#	263293
#	275609
#	285789
#
# Disc length: 3969 seconds
#
# Revision: 0
# Processed by: cddbd v1.5.2PL0 Copyright (c) Steve Scherf et al.
# Submitted via: audiograbber 1.83.01
#
DISCID=070f7f14
DTITLE=Mikko Alatalo - Viimeinen Juna 
DYEAR=2018
DGENRE=Country
TTITLE0=Kantri‰ij‰t 
TTITLE1=Ik‰v‰ Jussia 
TTITLE2=Viimeinen Juna 
TTITLE3=Jumalan Juoksupoika 
TTITLE4=Majatalo
TTITLE5=Annika
TTITLE6=Rakastaja Yh‰ 
TTITLE7=Pitk‰tukat Hoilailee 
TTITLE8=Kulta Sek‰ Hopia 
TTITLE9=Tyhj‰ Pes‰ 
TTITLE10=Musta Ik‰v‰ 
TTITLE11=Ei Tarvi Olla Huolissaan 
TTITLE12=Hurrin Perkeleet 
TTITLE13=Hyv‰‰ Yst‰v‰np‰iv‰‰ 
TTITLE14=Ruusupolku
TTITLE15=Pieni Kyl‰
TTITLE16=Haalistuvat Muistot 
TTITLE17=Hanki El‰m‰ 
TTITLE18=Is‰n Varjo 
TTITLE19=Siunattu 
EXTD=
EXTT0=
EXTT1=
EXTT2=
EXTT3=
EXTT4=
EXTT5=
EXTT6=
EXTT7=
EXTT8=
EXTT9=
EXTT10=
EXTT11=
EXTT12=
EXTT13=
EXTT14=
EXTT15=
EXTT16=
EXTT17=
EXTT18=
EXTT19=
PLAYORDER=
